<?xml version="1.0" encoding="utf-8"?>
<!-- Generator: Adobe Illustrator 28.3.0, SVG Export Plug-In . SVG Version: 6.00 Build 0)  -->
<svg version="1.1" id="Layer_2_00000085235732737805813250000003033008563729662601_"
	 xmlns="http://www.w3.org/2000/svg" xmlns:xlink="http://www.w3.org/1999/xlink" x="0px" y="0px" viewBox="0 0 35.6 47.5"
	 style="enable-background:new 0 0 35.6 47.5;" xml:space="preserve">
<style type="text/css">
	.st0{fill:#68ABBA;stroke:#000000;stroke-miterlimit:10;}
</style>
<g id="Mobile">
	<path id="Services_Icon" class="st0" d="M22.1,10.8c0,5.7-4.6,10.3-10.3,10.3S1.6,16.5,1.6,10.8S6.2,0.5,11.9,0.5
		S22.1,5.1,22.1,10.8z M7.3,27V36 M6.7,36h12.2 M14.3,31.1l4.9,4.9 M35,28.6l-6.6,18.3L17,42.8l0.6-1.7H5.2c-2.6,0-4.8-2.1-4.8-4.8
		v-9.4c0-2.6,2.1-4.8,4.8-4.8h14.3c1.8,0,3.3,1,4.1,2.4C23.7,24.5,35,28.6,35,28.6z"/>
</g>
</svg>
