<?xml version="1.0" encoding="UTF-8"?>
<!-- viewBox="0 0 98.59 66.44" -->
<svg id="Layer_2" data-name="Layer 2" xmlns="http://www.w3.org/2000/svg" viewBox="-10.705 -7.22 120 80">
  <defs>
    <style>
      .cls-1 {
        fill: #8f857d;
        opacity: .42;
      }

      .cls-1, .cls-2, .cls-3, .cls-4 {
        stroke-width: 0px;
      }

      .cls-5 {
        letter-spacing: -.02em;
      }

      .cls-2 {
        fill: #c7b299;
      }

      .cls-6 {
        font-size: 12.94px;
      }

      .cls-6, .cls-7, .cls-4 {
        fill: #f7f0f5;
      }

      .cls-6, .cls-7, .cls-8 {
        font-family: Prompt-SemiBoldItalic, Prompt;
        font-style: italic;
        font-weight: 600;
      }

      .cls-6, .cls-9 {
        opacity: .49;
      }

      .cls-3 {
        fill: #101e41;
      }

      .cls-10 {
        opacity: .75;
      }

      .cls-10, .cls-9 {
        fill: #3d3d66;
        stroke: #7777d8;
        stroke-miterlimit: 10;
        stroke-width: 3px;
      }

      .cls-7 {
        font-size: 32.36px;
      }

      .cls-11 {
        letter-spacing: -.01em;
      }

      .cls-12 {
        letter-spacing: 0em;
      }

      .cls-8 {
        fill: #decbb7;
        font-size: 28.26px;
      }
    </style>
  </defs>
  <g id="Tablets">
    <g id="Home_Page" data-name="Home Page">
      <g>
        <rect class="cls-3" width="98.59" height="66.44"/>
        <path class="cls-4" d="M14.72,43.23c-1.93-.44-6.09-1.59-6.09-1.58v-7.39c.59.71,6.13,2.12,7.87,2.59,1.74.47,3.44.73,5.12.76,2.1.04,3.73-.34,4.9-1.16,1.16-.82,1.76-1.95,1.79-3.4.02-.98-.39-1.79-1.23-2.45-.84-.66-2.38-1.53-4.62-2.62-2.43-1.2-4.2-2.47-5.3-3.83-1.1-1.35-1.64-2.94-1.6-4.76.01-.61.11-1.36.29-2.27.43-1.98,1.34-3.72,2.73-5.23,1.39-1.5,3.11-2.66,5.16-3.46,2.05-.8,4.31-1.17,6.76-1.12,2,.04,3.75.25,5.25.62,1.49.37,2.9.92,4.21,1.66l-1.49,6.54c-2.52-1.54-5.2-2.33-8.05-2.39-1.81-.04-3.3.26-4.48.89-1.18.63-1.91,1.55-2.19,2.76-.07.34-.11.59-.11.76-.01.71.19,1.31.62,1.81.43.5,1.01.96,1.74,1.38.73.42,1.92,1.02,3.55,1.79,2.56,1.27,4.38,2.52,5.47,3.75,1.09,1.24,1.61,2.78,1.58,4.63-.02.78-.13,1.65-.35,2.62-.71,3.19-2.38,5.65-5,7.38-2.62,1.73-6.13,2.55-10.52,2.46-2.07-.04-4.07-.29-6-.73Z"/>
        <text class="cls-7" transform="translate(35.56 43.23)"><tspan class="cls-11" x="0" y="0">t</tspan><tspan class="cls-12" x="12.04" y="0">ar</tspan></text>
        <line class="cls-9" x1="8.52" y1="6.69" x2="8.52" y2="61.05"/>
        <polygon class="cls-2" points="8.41 31.93 5.7 35.27 1.14 33.88 3.94 37.44 1.08 40.96 5.66 39.64 8.41 43.15 8.41 31.93"/>
        <text class="cls-8" transform="translate(69.09 26.81)"><tspan x="0" y="0">19</tspan></text>
        <line class="cls-10" x1="97.73" y1="47.53" x2="8.63" y2="47.53"/>
        <polygon class="cls-1" points="72.41 26.78 69.57 27.22 69.91 26.18 67.35 23.88 67.99 23.47 67.65 21.7 69.17 22.02 69.48 21.19 71.03 22.82 70.8 19.57 71.69 20.15 72.92 18.4 73.8 20.16 72.41 26.78"/>
        <text class="cls-6" transform="translate(14.06 58)"><tspan class="cls-5" x="0" y="0">C</tspan><tspan x="8.65" y="0">onsulting</tspan></text>
      </g>
    </g>
  </g>
</svg>