<?xml version="1.0" encoding="UTF-8"?>
<svg id="Layer_2" data-name="Layer 2" xmlns="http://www.w3.org/2000/svg" viewBox="0 0 30.87 33.59">
  <defs>
    <style>
      .cls-1 {
        fill: #4d7c8a;
        stroke: #000;
        stroke-miterlimit: 10;
      }
    </style>
  </defs>
  <g id="Mobile">
    <path id="User" class="cls-1" d="M22.03,19.94c-.87-.42-1.06-1.72-.4-2.49,1.53-1.8,2.48-4.26,2.48-6.97,0-5.51-3.88-9.98-8.67-9.98S6.76,4.97,6.76,10.48c0,2.72.95,5.18,2.48,6.97.66.77.47,2.07-.4,2.49-4.47,2.13-7.7,6.36-8.32,11.37-.12.94.5,1.78,1.33,1.78h27.18c.83,0,1.45-.85,1.33-1.78-.63-5.01-3.85-9.24-8.32-11.37Z"/>
  </g>
</svg>