<?xml version="1.0" encoding="utf-8"?>
<!-- Generator: Adobe Illustrator 28.3.0, SVG Export Plug-In . SVG Version: 6.00 Build 0)  -->
<svg version="1.1" id="Layer_2_00000130644841221099127450000018360955369707087498_"
	 xmlns="http://www.w3.org/2000/svg" xmlns:xlink="http://www.w3.org/1999/xlink" x="0px" y="0px" viewBox="0 0 30.9 33.6"
	 style="enable-background:new 0 0 30.9 33.6;" xml:space="preserve">
<style type="text/css">
	.st0{fill:#6F6F6F;stroke:#000000;stroke-miterlimit:10;}
</style>
<g id="Mobile">
	<path id="User" class="st0" d="M22,19.9c-0.9-0.4-1.1-1.7-0.4-2.5c1.5-1.8,2.5-4.3,2.5-7c0-5.5-3.9-10-8.7-10S6.8,5,6.8,10.5
		c0,2.7,0.9,5.2,2.5,7c0.7,0.8,0.5,2.1-0.4,2.5c-4.5,2.1-7.7,6.4-8.3,11.4c-0.1,0.9,0.5,1.8,1.3,1.8H29c0.8,0,1.5-0.8,1.3-1.8
		C29.7,26.3,26.5,22.1,22,19.9L22,19.9z"/>
</g>
</svg>
