<?xml version="1.0" encoding="UTF-8"?>
<svg id="Layer_2" data-name="Layer 2" xmlns="http://www.w3.org/2000/svg" viewBox="0 0 27 32.28">
  <defs>
    <style>
      .cls-1 {
        fill: #008aa9;
      }

      .cls-1, .cls-2, .cls-3, .cls-4, .cls-5 {
        stroke-width: 0px;
      }

      .cls-2, .cls-4 {
        opacity: .3;
      }

      .cls-2, .cls-4, .cls-5 {
        isolation: isolate;
      }

      .cls-2, .cls-5 {
        fill: #000;
      }

      .cls-3, .cls-4 {
        fill: #fff;
      }

      .cls-5 {
        opacity: .15;
      }
    </style>
  </defs>
  <g id="Desktop">
    <g>
      <path class="cls-1" d="M23.05,23.05c-2.04,2.04-4.56,3.29-7.2,3.74-1.55.28-3.15.28-4.7,0-2.64-.46-5.16-1.7-7.2-3.74C-1.32,17.77-1.32,9.23,3.96,3.96c5.27-5.28,13.82-5.28,19.09,0,5.28,5.27,5.28,13.82,0,19.09Z"/>
      <ellipse class="cls-2" cx="13.5" cy="30.52" rx="11.15" ry="1.76"/>
      <path class="cls-3" d="M15.85,11.15v2.35h2.84c.36,0,.63.32.58.67l-.35,2.43c-.08.58-.58,1.01-1.16,1.01h-1.92v9.18c-1.55.28-3.15.28-4.7,0v-9.18h-2.35c-.65,0-1.17-.53-1.17-1.17v-1.76c0-.65.53-1.17,1.17-1.17h2.35v-2.35c0-3.88,2.09-6.71,7.25-5.78.56.1.97.59.97,1.16v1.16c0,.6-.45,1.1-1.04,1.16-1.66.17-2.48.82-2.48,2.3Z"/>
      <path class="cls-4" d="M13.5,2.94c1.51,0,2.74-1.15,2.9-2.62C15.47.11,14.5,0,13.5,0,6.05,0,0,6.05,0,13.5c0,1,.11,1.97.32,2.9,1.47-.16,2.62-1.39,2.62-2.9C2.94,7.68,7.68,2.94,13.5,2.94Z"/>
      <path class="cls-5" d="M26.68,10.6c-1.47.16-2.62,1.39-2.62,2.9,0,5.83-4.74,10.57-10.57,10.57-1.51,0-2.74,1.15-2.9,2.62.94.2,1.91.32,2.9.32,7.46,0,13.5-6.04,13.5-13.5,0-1-.11-1.97-.32-2.9Z"/>
      <path class="cls-3" d="M3.55,9.35c-.13,0-.27-.03-.4-.1-.43-.22-.61-.75-.39-1.18,1.19-2.33,3.13-4.25,5.49-5.4.44-.21.96-.03,1.18.41.21.44.03.96-.41,1.18-2.01.98-3.67,2.62-4.69,4.61-.16.31-.46.48-.79.48Z"/>
    </g>
  </g>
</svg>