<?xml version="1.0" encoding="UTF-8"?>
<svg id="Layer_2" data-name="Layer 2" xmlns="http://www.w3.org/2000/svg" viewBox="0 0 32.76 39.17">
  <defs>
    <style>
      .cls-1 {
        fill: #a0effe;
      }

      .cls-1, .cls-2, .cls-3, .cls-4, .cls-5 {
        stroke-width: 0px;
      }

      .cls-2 {
        fill: #101e41;
      }

      .cls-3, .cls-4 {
        opacity: .3;
      }

      .cls-3, .cls-4, .cls-5 {
        isolation: isolate;
      }

      .cls-3, .cls-5 {
        fill: #000;
      }

      .cls-4 {
        fill: #fff;
      }

      .cls-6 {
        fill: none;
        stroke: #fff;
        stroke-linecap: round;
        stroke-linejoin: round;
        stroke-width: 3px;
      }

      .cls-5 {
        opacity: .15;
      }
    </style>
  </defs>
  <g id="Desktop">
    <g>
      <circle class="cls-2" cx="16.38" cy="16.38" r="16.38"/>
      <ellipse class="cls-3" cx="16.38" cy="37.03" rx="13.53" ry="2.14"/>
      <path class="cls-4" d="M16.38,3.56c1.84,0,3.33-1.39,3.52-3.18-1.14-.25-2.31-.38-3.52-.38C7.33,0,0,7.33,0,16.38c0,1.21.14,2.39.38,3.52,1.78-.19,3.18-1.69,3.18-3.52,0-7.07,5.75-12.82,12.82-12.82Z"/>
      <path class="cls-6" d="M4.31,10.27c1.34-2.63,3.51-4.77,6.17-6.07"/>
      <path class="cls-5" d="M32.37,12.86c-1.78.19-3.18,1.69-3.18,3.52,0,7.07-5.75,12.82-12.82,12.82-1.84,0-3.33,1.39-3.52,3.18,1.14.25,2.31.38,3.52.38,9.05,0,16.38-7.33,16.38-16.38,0-1.21-.14-2.39-.38-3.52Z"/>
      <g>
        <path class="cls-1" d="M8.77,12.87h2.34c.32,0,.58.26.58.58v10.53c0,.32-.26.58-.58.58h-2.34c-.32,0-.58-.26-.58-.58v-10.53c0-.32.26-.59.58-.59Z"/>
        <path class="cls-1" d="M9.93,11.7h-.02c-1.05,0-1.72-.78-1.72-1.76s.7-1.75,1.76-1.75,1.73.76,1.74,1.75c0,.97-.68,1.76-1.76,1.76Z"/>
        <path class="cls-1" d="M21.64,24.57c-.32,0-.58-.26-.58-.58v-5.63c0-1.5-.84-2.52-2.18-2.52-1.02,0-1.58.69-1.85,1.36-.1.24-.07.9-.07,1.23v5.56c0,.32-.26.58-.58.58h-2.34c-.32,0-.58-.26-.58-.58v-10.53c0-.32.26-.58.58-.58h2.34c.32,0,.58.26.58.58v1.17c.49-.76,1.36-1.76,3.33-1.76,2.44,0,4.27,1.64,4.27,5.06v6.05c0,.32-.26.59-.58.59h-2.34Z"/>
      </g>
    </g>
  </g>
</svg>