<?xml version="1.0" encoding="utf-8"?>
<!-- Generator: Adobe Illustrator 28.3.0, SVG Export Plug-In . SVG Version: 6.00 Build 0)  -->
<svg version="1.1" id="Layer_2_00000156577030865375728280000017404423841762226622_"
	 xmlns="http://www.w3.org/2000/svg" xmlns:xlink="http://www.w3.org/1999/xlink" x="0px" y="0px" viewBox="0 0 51 32.2"
	 style="enable-background:new 0 0 51 32.2;" xml:space="preserve">
<style type="text/css">
	.st0{fill:#CCCCCC;stroke:#E6E6E6;stroke-miterlimit:10;}
	.st1{fill:#8C9293;}
</style>
<path class="st0" d="M8.1,3.1h34.9c4.2,0,7.6,2.9,7.6,6.5v13.8c0,3.6-3.4,6.5-7.6,6.5H8.1c-4.2,0-7.6-2.9-7.6-6.5V9.5
	C0.5,6,3.9,3.1,8.1,3.1z"/>
<g>
	<g>
		<path class="st1" d="M9,19.8c-0.6,0-1.1-0.1-1.6-0.2c-0.5-0.2-0.8-0.4-1.1-0.8c-0.3-0.4-0.4-0.8-0.4-1.4c0,0,0-0.1,0-0.1
			s0-0.1,0-0.1h1.2c0,0,0,0.1,0,0.1c0,0,0,0.1,0,0.1c0,0.3,0.1,0.6,0.2,0.8s0.4,0.4,0.7,0.5c0.3,0.1,0.6,0.2,1,0.2
			c0.4,0,0.7,0,1-0.1c0.3-0.1,0.5-0.2,0.7-0.4c0.2-0.2,0.2-0.5,0.2-0.8c0-0.3-0.1-0.5-0.3-0.7c-0.2-0.2-0.4-0.3-0.7-0.4
			S9.4,16.1,9,16c-0.3-0.1-0.7-0.2-1-0.3c-0.3-0.1-0.7-0.2-0.9-0.4s-0.5-0.4-0.7-0.7c-0.2-0.3-0.3-0.6-0.3-1.1
			c0-0.5,0.1-0.9,0.4-1.3c0.3-0.3,0.6-0.6,1.1-0.7c0.5-0.2,0.9-0.2,1.5-0.2s1,0.1,1.5,0.2c0.4,0.2,0.8,0.4,1.1,0.7
			c0.3,0.3,0.4,0.8,0.4,1.3v0.2h-1.2v-0.2c0-0.3-0.1-0.5-0.2-0.7c-0.2-0.2-0.4-0.3-0.6-0.4c-0.3-0.1-0.6-0.1-0.9-0.1
			c-0.3,0-0.6,0-0.9,0.1s-0.5,0.2-0.6,0.4c-0.1,0.2-0.2,0.4-0.2,0.7c0,0.3,0.1,0.5,0.3,0.7c0.2,0.2,0.4,0.3,0.7,0.4
			c0.3,0.1,0.6,0.2,1,0.3c0.3,0.1,0.7,0.2,1,0.3c0.3,0.1,0.7,0.2,0.9,0.4c0.3,0.2,0.5,0.4,0.7,0.7c0.2,0.3,0.3,0.6,0.3,1.1
			c0,0.6-0.1,1.1-0.4,1.5c-0.3,0.4-0.7,0.6-1.2,0.8C10.1,19.7,9.6,19.8,9,19.8z"/>
		<path class="st1" d="M16.3,19.8c-0.5,0-1-0.1-1.4-0.4c-0.4-0.2-0.7-0.6-1-1c-0.2-0.5-0.3-1-0.3-1.7v-0.3c0-0.6,0.1-1.2,0.4-1.7
			s0.6-0.8,1-1s0.9-0.4,1.5-0.4h0.1c0.5,0,0.9,0.1,1.3,0.3c0.4,0.2,0.7,0.5,0.9,0.9C18.9,15,19,15.5,19,16v0.8h-4.2
			c0,0.5,0.1,0.8,0.2,1.2c0.1,0.3,0.3,0.6,0.5,0.8c0.2,0.2,0.5,0.3,0.9,0.3c0.3,0,0.5-0.1,0.8-0.2c0.2-0.1,0.4-0.3,0.5-0.5
			c0.1-0.2,0.2-0.5,0.2-0.9H19c0,0.5-0.1,0.9-0.3,1.3c-0.2,0.4-0.5,0.6-0.9,0.8c-0.4,0.2-0.8,0.3-1.3,0.3H16.3z M14.8,16h3.1
			c0-0.6-0.1-1-0.4-1.3c-0.3-0.3-0.6-0.4-1.1-0.4c-0.4,0-0.8,0.1-1.1,0.4S14.8,15.4,14.8,16z"/>
		<path class="st1" d="M22.3,19.8c-0.3,0-0.6-0.1-0.9-0.2s-0.5-0.3-0.7-0.5c-0.2-0.2-0.3-0.6-0.3-1c0-0.4,0.1-0.8,0.3-1.1
			c0.2-0.3,0.5-0.5,0.8-0.6c0.4-0.1,0.8-0.2,1.3-0.3c0.5-0.1,1.1-0.1,1.7-0.1v-0.6c0-0.4-0.1-0.7-0.3-0.9c-0.2-0.2-0.5-0.3-1-0.3
			c-0.4,0-0.7,0.1-1,0.2c-0.3,0.2-0.4,0.4-0.4,0.8v0.1h-1.2c0,0,0-0.1,0-0.1c0,0,0-0.1,0-0.1c0-0.4,0.1-0.7,0.3-0.9
			c0.2-0.3,0.5-0.5,0.9-0.6c0.4-0.1,0.8-0.2,1.3-0.2h0.2c0.8,0,1.4,0.2,1.8,0.5c0.4,0.3,0.6,0.8,0.6,1.4v3.3c0,0.2,0,0.3,0.1,0.3
			c0.1,0.1,0.1,0.1,0.2,0.1c0.1,0,0.2,0,0.3,0c0.1,0,0.2-0.1,0.3-0.1v0.8c-0.1,0.1-0.2,0.1-0.4,0.2c-0.2,0-0.3,0.1-0.5,0.1
			c-0.3,0-0.5-0.1-0.6-0.2s-0.3-0.2-0.3-0.4c-0.1-0.2-0.1-0.4-0.1-0.6c-0.2,0.4-0.5,0.6-0.9,0.8S22.8,19.8,22.3,19.8z M22.7,18.9
			c0.3,0,0.5-0.1,0.8-0.2s0.5-0.3,0.6-0.6s0.2-0.6,0.2-1v-0.5c-0.6,0-1.1,0-1.5,0.1c-0.4,0.1-0.8,0.2-1,0.3
			c-0.2,0.2-0.3,0.4-0.3,0.8c0,0.3,0.1,0.6,0.3,0.7S22.3,18.9,22.7,18.9z"/>
		<path class="st1" d="M27.9,19.7v-6.1h0.9l0.2,0.9c0,0,0.1-0.1,0.1-0.2c0.1-0.1,0.2-0.2,0.3-0.3c0.1-0.1,0.3-0.2,0.5-0.3
			s0.5-0.1,0.8-0.1c0.4,0,0.8,0.1,1.1,0.3c0.3,0.2,0.5,0.4,0.6,0.7c0.1,0.3,0.2,0.6,0.2,1c0,0.1,0,0.2,0,0.3c0,0.1,0,0.1,0,0.2h-1
			v-0.2c0-0.2,0-0.4-0.1-0.6c-0.1-0.2-0.2-0.4-0.4-0.5c-0.2-0.1-0.4-0.2-0.7-0.2c-0.2,0-0.4,0-0.6,0.1c-0.2,0.1-0.3,0.2-0.4,0.4
			c-0.1,0.1-0.2,0.3-0.2,0.5s-0.1,0.3-0.1,0.5v3.9H27.9z"/>
		<path class="st1" d="M36.1,19.8c-0.5,0-1-0.1-1.4-0.4c-0.4-0.2-0.7-0.6-0.9-1.1c-0.2-0.5-0.3-1-0.3-1.6v-0.3
			c0-0.5,0.1-0.9,0.2-1.3c0.1-0.4,0.3-0.7,0.6-1c0.2-0.3,0.5-0.5,0.9-0.6c0.3-0.1,0.7-0.2,1.1-0.2h0.1c0.5,0,0.9,0.1,1.3,0.3
			c0.4,0.2,0.7,0.5,0.9,0.9s0.3,0.8,0.3,1.4h-1.1c0-0.4-0.1-0.7-0.2-0.9s-0.3-0.4-0.5-0.6c-0.2-0.1-0.5-0.2-0.8-0.2
			c-0.4,0-0.8,0.2-1.1,0.5s-0.5,0.8-0.5,1.4V17c0,0.6,0.1,1.1,0.4,1.4s0.7,0.5,1.1,0.5c0.3,0,0.6-0.1,0.8-0.2
			c0.2-0.1,0.4-0.3,0.5-0.5s0.2-0.6,0.2-1h1c0,0.5-0.1,1-0.3,1.4c-0.2,0.4-0.5,0.7-0.9,0.9s-0.8,0.3-1.3,0.3H36.1z"/>
		<path class="st1" d="M40.4,19.7V11h1.2v3.3c0.2-0.3,0.5-0.5,0.8-0.7c0.3-0.2,0.7-0.2,1-0.2c0.4,0,0.8,0.1,1.1,0.2
			c0.3,0.2,0.6,0.4,0.8,0.7c0.2,0.3,0.3,0.7,0.3,1.2v4.1h-1.2v-3.9c0-0.5-0.1-0.9-0.4-1.1c-0.2-0.2-0.6-0.3-1-0.3
			c-0.3,0-0.5,0.1-0.8,0.2c-0.2,0.1-0.4,0.3-0.5,0.5s-0.2,0.5-0.2,0.8v3.8H40.4z"/>
	</g>
</g>
</svg>
