<?xml version="1.0" encoding="UTF-8"?>
<svg id="Layer_2" data-name="Layer 2" xmlns="http://www.w3.org/2000/svg" viewBox="0 0 27.84 28.75">
  <defs>
    <style>
      .cls-1, .cls-2, .cls-3, .cls-4, .cls-5 {
        stroke-width: 0px;
      }

      .cls-1, .cls-4 {
        opacity: .3;
      }

      .cls-1, .cls-4, .cls-5 {
        isolation: isolate;
      }

      .cls-1, .cls-5 {
        fill: #000;
      }

      .cls-2 {
        fill: #37d0ee;
      }

      .cls-3, .cls-4 {
        fill: #fff;
      }

      .cls-5 {
        opacity: .15;
      }
    </style>
  </defs>
  <g id="Desktop">
    <g>
      <path class="cls-2" d="M27.14,2.66c-.76.26-1.57.4-2.44.5.85-.42,1.44-1.05,1.99-1.81.31-.44-.17-1.01-.66-.77-.86.42-1.69.73-2.74.9-1.02-.92-2.37-1.48-3.86-1.48-2.16,0-4.04,1.18-5.03,2.93-.48.84-.75,1.81-.75,2.85,0,.36.04.7.1,1.04-4.64-.14-8.54-2.54-10.75-5.55-.25-.33-.76-.26-.91.12-.24.59-.53,1.24-.53,2.29,0,.06,0,.12,0,.18.02.68.17,1.33.44,1.92.49,1.14,1.39,2.07,2.51,2.62-.11,0-.21.01-.32.01-1.05,0-1.4-.36-1.97-.51-.36-.09-.71.21-.65.57.17,1.17.78,2.4,1.59,3.18.87.85,2.04,1.4,3.34,1.48-.69.34-1.48.54-2.31.54h-.53c-.4,0-.64.42-.47.77.88,1.74,2.92,2.91,5.11,2.9-2.11,1.33-4.59,2.11-7.27,2.11h-.53c-.29,0-.53.24-.53.52,0,.24.16.43.39.5h0s3.96,1.6,8.55,1.6c8.89,0,16.12-7.13,16.28-15.99,0-.1,0-.2,0-.3s0-.2,0-.3c0-.14-.03-.29-.04-.43.97-.31,1.84-.82,2.53-1.54.38-.4-.03-1.03-.55-.86Z"/>
      <ellipse class="cls-1" cx="10.58" cy="27.08" rx="10.58" ry="1.67"/>
      <path class="cls-4" d="M22.14.67c-.3,1.21-1.4,2.11-2.7,2.11-1.08,0-2.08.58-2.61,1.51-.26.46-.39.95-.39,1.48,0,.15.02.32.06.54.15.83-.08,1.68-.63,2.32-.53.61-1.3.97-2.11.97h-.08c-3.69-.11-7.3-1.46-10.16-3.79-1.19-.97-1.36-2.73-.39-3.92.06-.08.13-.15.19-.22,2.26,2.82,6,5.01,10.44,5.15-.06-.34-.11-.68-.11-1.04,0-1.03.27-2,.75-2.85C15.4,1.18,17.28,0,19.44,0c.97,0,1.9.25,2.7.67Z"/>
      <path class="cls-5" d="M25.16,7.06c-.65,8.4-7.67,15-16.23,15-.96,0-1.9-.07-2.77-.18.09-1.45,1.3-2.6,2.77-2.6,6.18,0,11.56-4.18,13.08-10.15.36-1.41,1.73-2.29,3.15-2.07Z"/>
      <path class="cls-3" d="M17.56,6.61c-.46,0-.84-.37-.84-.84,0-.68.17-1.31.5-1.89.67-1.19,1.95-1.93,3.33-1.93.46,0,.84.37.84.84s-.37.84-.84.84c-.78,0-1.5.42-1.88,1.09-.19.33-.28.68-.28,1.06,0,.46-.37.84-.83.84Z"/>
    </g>
  </g>
</svg>