<?xml version="1.0" encoding="UTF-8"?>
<svg id="Layer_2" data-name="Layer 2" xmlns="http://www.w3.org/2000/svg" viewBox="0 0 32.46 31.83">
  <defs>
    <style>
      .cls-1 {
        fill: #4d7c8a;
      }

      .cls-1, .cls-2, .cls-3, .cls-4, .cls-5 {
        stroke-width: 0px;
      }

      .cls-2, .cls-4 {
        opacity: .3;
      }

      .cls-2, .cls-4, .cls-5 {
        isolation: isolate;
      }

      .cls-2, .cls-5 {
        fill: #000;
      }

      .cls-3, .cls-4 {
        fill: #fff;
      }

      .cls-6 {
        fill: none;
        stroke: #fff;
        stroke-linecap: round;
        stroke-linejoin: round;
        stroke-width: 3px;
      }

      .cls-5 {
        opacity: .15;
      }
    </style>
  </defs>
  <g id="Desktop">
    <g>
      <ellipse class="cls-2" cx="16.23" cy="29.96" rx="14.98" ry="1.87"/>
      <path class="cls-1" d="M32.46,17.89c0,2.58-1.8,4.8-4.31,5.35-2.59.57-6.46,1.1-11.92,1.1s-9.33-.53-11.92-1.1c-2.52-.55-4.31-2.78-4.31-5.35V6.74C0,4.3,1.6,2.16,3.94,1.48c2.58-.75,6.57-1.48,12.29-1.48s9.71.73,12.29,1.48c2.34.68,3.94,2.82,3.94,5.26v11.15Z"/>
      <path class="cls-3" d="M11.86,17.02V6.7c0-1,1.11-1.59,1.94-1.04l7.74,5.16c.74.49.74,1.58,0,2.08l-7.74,5.15c-.83.55-1.94-.04-1.94-1.04Z"/>
      <path class="cls-5" d="M29.34,13.11v4.78c0,1.11-.77,2.06-1.87,2.3-2.12.47-5.8,1.03-11.24,1.03-1.7,0-3.08,1.37-3.11,3.06.98.04,2.01.06,3.11.06,5.46,0,9.33-.53,11.92-1.1,2.52-.55,4.31-2.78,4.31-5.35v-7.9c-1.72,0-3.12,1.4-3.12,3.12Z"/>
      <path class="cls-4" d="M16.23,3.12c1.7,0,3.07-1.36,3.11-3.04-.98-.05-2.01-.08-3.11-.08C10.5,0,6.52.73,3.94,1.48,1.6,2.16,0,4.3,0,6.74v8.87c1.72,0,3.12-1.4,3.12-3.12v-5.75c0-1.04.69-1.97,1.69-2.26,2.12-.62,5.83-1.36,11.42-1.36Z"/>
      <path class="cls-6" d="M2.18,9.99v-3.25c0-1.45.97-2.75,2.36-3.16"/>
    </g>
  </g>
</svg>